<svg width="306" height="306" xmlns="http://www.w3.org/2000/svg" preserveAspectRatio="xMidYMid meet">
 <metadata>Created by potrace 1.16, written by Peter Selinger 2001-2019</metadata>

 <g>
  <title>background</title>
  <rect x="-1" y="-1" width="308" height="308" id="canvas_background" fill="none"/>
 </g>
 <g>
  <title>Layer 1</title>
  <g transform="translate(0,226) scale(0.10000000149011612,-0.10000000149011612) " fill="#000000" id="svg_1">
   <path d="m1180.675458,973.83153c-73.93412,-42.80435 -88.4569,-58.85599 -78.55501,-87.9018c1.32026,-4.58618 71.95375,-58.85599 155.78977,-120.00507l153.14925,-110.06834l-102.31954,-59.62036l-102.97968,-59.62035l-75.9145,43.56872l-75.25438,43.56872l-52.81009,-29.04581c-34.98668,-19.87346 -53.47021,-35.16073 -56.11072,-45.86181c-4.62088,-22.16655 15.18291,-53.50545 100.9993,-157.45888l71.95375,-87.90181l157.11001,0l157.77014,0l306.29852,181.15415c168.33216,100.13162 320.16116,194.14833 336.66431,208.67124c56.11072,49.68362 93.07779,117.71198 98.3588,180.38978c2.6405,34.39636 1.32025,38.98254 -19.80379,63.44217c-26.40504,30.57454 -59.41135,42.80436 -114.20181,42.80436c-64.03224,-0.76436 -92.41766,-11.46545 -219.16187,-84.84435l-120.14295,-70.32144l-213.22074,93.25235c-117.50245,51.21235 -217.84162,94.78107 -223.12262,96.3098c-5.28101,2.29309 -43.56833,-16.05164 -84.49615,-40.51127z" id="svg_2" fill="#CC7C65" stroke="null"/>
   <ellipse fill="#f2f2f2" stroke-width="null" cx="671.388163" cy="-314.538973" id="svg_4" rx="6.601261" ry="7.643635" stroke="null"/>
  </g>
  <ellipse fill="#ffffff" stroke="null" stroke-width="null" stroke-opacity="null" cx="109.171188" cy="169.79233" id="svg_22"/>
  <ellipse fill="#ffffff" stroke="null" stroke-width="null" stroke-opacity="null" cx="92.504528" cy="168.839949" id="svg_23"/>
  <ellipse fill="#ffffff" stroke="null" stroke-width="null" stroke-opacity="null" cx="108.933093" cy="169.078044" id="svg_24" rx="0.238095" ry="0.238095"/>
  <path fill="#CC7C65" stroke-width="NaN" stroke-opacity="null" fill-opacity="null" d="m76.0491,233.52931c-32.5375,0 -58.92694,-25.23082 -58.92694,-56.33975l0,0c0.01964,-24.9679 17.02988,-46.0014 40.53191,-53.37252l0,0c0.81516,-21.22131 19.02358,-38.16079 41.406,-38.17957l0,0c7.16944,0 13.89693,1.78409 19.74052,4.85461l0,0c12.43359,-19.76587 35.06153,-33.0151 60.96974,-33.02449l0,0c38.76411,0.01878 70.29002,29.62532 71.18374,66.47152l0,0c23.19758,7.54952 39.89354,28.48913 39.91318,53.25045l0,0c0,31.10893 -26.38944,56.33975 -58.92694,56.33975l0,0l-155.89121,0l0,0zm163.04102,-93.19534c-5.01861,-0.89204 -8.48548,-5.27715 -8.00425,-10.13176l0,0c0.16696,-1.60568 0.26517,-3.15503 0.26517,-4.66681l0,0c-0.06874,-27.22149 -23.09936,-49.25033 -51.57089,-49.28789l0,0c-22.08778,-0.01878 -40.87565,13.31496 -48.2317,32.01976l0,0c-1.19818,3.03295 -3.98739,5.29593 -7.34622,5.91567l0,0c-3.3392,0.61974 -6.81589,-0.48828 -9.10422,-2.9015l0,0c-4.0856,-4.25365 -9.68366,-6.86406 -16.03794,-6.86406l0,0c-12.03092,0.01879 -21.76369,9.32423 -21.80297,20.82693l0,0c0,1.27704 0.16696,2.59163 0.44195,3.98134l0,0c0.48124,2.49773 -0.07857,5.07058 -1.60085,7.15515l0,0c-1.52228,2.09396 -3.84989,3.48368 -6.4525,3.88744l0,0c-18.6602,2.93906 -32.92052,18.30103 -32.90087,36.91193l0,0c0.03928,20.74242 17.59951,37.51288 39.29444,37.56922l0,0l155.90104,0c21.69494,-0.05634 39.2257,-16.8268 39.27481,-37.56922l0,0c0.03928,-18.37615 -13.84783,-33.61605 -32.125,-36.84619l0,0" id="svg_49" stroke="null"/>
 </g>
</svg>